<svg xmlns="http://www.w3.org/2000/svg" viewBox="0 0 500 500" width="500" height="500"><path x="10" y="12" width="22" height="22" rx="5" d="M75 60H135A25 25 0 0 1 160 85V145A25 25 0 0 1 135 170H75A25 25 0 0 1 50 145V85A25 25 0 0 1 75 60z"/><path x="10" y="42" width="22" height="22" rx="5" d="M75 210H135A25 25 0 0 1 160 235V295A25 25 0 0 1 135 320H75A25 25 0 0 1 50 295V235A25 25 0 0 1 75 210z"/><path x="11" y="73" width="20" height="20" rx="5" fill="none" stroke="#000" stroke-width="15" d="M80 365H130A25 25 0 0 1 155 390V440A25 25 0 0 1 130 465H80A25 25 0 0 1 55 440V390A25 25 0 0 1 80 365z"/><path x="42" y="18" width="48" height="10" rx="5" d="M235 90H425A25 25 0 0 1 450 115V115A25 25 0 0 1 425 140H235A25 25 0 0 1 210 115V115A25 25 0 0 1 235 90z"/><path x="42" y="48" width="48" height="10" rx="5" d="M235 240H425A25 25 0 0 1 450 265V265A25 25 0 0 1 425 290H235A25 25 0 0 1 210 265V265A25 25 0 0 1 235 240z"/><path x="42" y="78" width="48" height="10" rx="5" d="M235 390H425A25 25 0 0 1 450 415V415A25 25 0 0 1 425 440H235A25 25 0 0 1 210 415V415A25 25 0 0 1 235 390z"/></svg>