<svg id="Layer_2" data-name="Layer 2" xmlns="http://www.w3.org/2000/svg" viewBox="0 0 117.4 100.7">
  <defs>
    <clipPath id="clippath">
      <path class="cls-1" d="M423.59 66.71q-.495 1.065-1.11 2.34c-2.03 4.18-4.98 9.75-9.01 13.29-.22.16-.45.32-.7.46-1.32.79-2.59 1.16-3.75 1.11-1.09-.13-1.98-.56-2.48-.85-.57-.4-1.09-.95-1.56-1.63-1.8-2.64-2.55-5.57-3.11-8.55-.92-4.84-1.01-9.71-.65-14.84-4.61-.62-8.99-1.21-13.52-1.83-.31.88-.55 1.54-.78 2.21-2.83 8.18-5.36 16.46-10.88 23.76-2.44 3.22-5.82 3.36-8.94.54-1.11-1-1.81-2.2-2.34-3.48-3.1-7.54-1.75-14.96.95-22.3 1.76-4.8 4.2-9.34 8.95-12.64 4-2.78 7.51-2.19 9.84 1.68 1.09 1.81 1.84 3.77 2.84 5.86 4.42-.8 8.76-1.58 13.31-2.4-.4-1.33-.63-2.41-1.04-3.43-2.35-6.02-5.73-11.42-13.13-14.02-8.1-2.84-17.9-.28-24.59 6.46-7.07 7.11-10.5 15.51-12.16 24.58-1.22 6.66-2.47 13.36-8.29 18.43-.3.26-.61.51-.91.74-.01-.02-.03-.04-.04-.05-.12.13-.25.25-.38.37a20.3 20.3 0 0 1-3.47 2.03c-1.88.3-3.76-.83-4.91-2.35-1.3-1.74-2.27-4.35-2.63-6.49-1.75-10.48-1.2-20.95-.19-31.43.35-3.64.84-7.26 1.28-11.08-4.68-.64-9.16-1.24-13.75-1.87-.35 2.33-1.14 4.42-1.42 6.5-1.03 7.72-1.48 14.9-1.55 19.69-.08 5.18.13 5.91-.38 8.21-.58 2.61-1.4 4.15-3.7 9.42-.33.75-.63 1.45-.92 2.13-.87 1.4-1.86 2.76-3.04 4.04-3.79 4.09-8.48 4.59-13.43 1.44-4.04-2.57-6.35-6.14-8.02-10.09.18-.31.31-.6.49-.87 12.68-18.84 17.64-39.24 16.85-60.7-.15-4.1-1.09-8.51-6.38-10.32-5.53-1.89-10.45-.04-14.72 3.07-3.01 2.2-5.32 4.91-7.04 7.92-7.67 13.43-9.11 27.8-7.65 42.31.86 8.48 1.8 16.61-3.94 24.18-1.27 1.67-2.48 3.36-4.44 4.53-3.11 1.87-5.9 1.4-7.8-1.37-1.8-2.64-2.55-5.56-3.11-8.54-.92-4.84-1.01-9.7-.65-14.83-4.61-.62-8.99-1.21-13.52-1.83-.31.88-.55 1.54-.78 2.21-2.83 8.18-5.36 16.46-10.88 23.74-2.44 3.22-5.82 3.36-8.94.54-1.11-1-1.81-2.2-2.34-3.48-3.1-7.53-1.75-14.95.95-22.29 1.76-4.8 4.2-9.33 8.95-12.63 4-2.78 7.51-2.19 9.84 1.68 1.09 1.81 1.84 3.76 2.84 5.85 4.42-.8 8.76-1.58 13.31-2.4-.4-1.33-.63-2.41-1.04-3.43-2.35-6.01-5.73-11.42-13.13-14.01-8.1-2.84-17.9-.28-24.59 6.45-7.07 7.1-10.5 15.51-12.16 24.57-1.21 6.6-3.69 12.88-8.29 18.42-1.58 1.9-3.56 3.66-6.69 3.24-3.03-.4-3.65-2.73-4.48-4.7-2.01-4.74-2.48-9.7-2.69-14.67-.43-9.97.29-19.9 1.81-29.77.47-3.06.46-6.24 1.81-9.17 10.4.35 20.58 1.08 30.39-2.81-1.84-3.68-3.53-7.06-5.28-10.55-7.53 2.14-14.88 2.51-22.48 1.43-.11-3.61 1.97-6.71 2.22-10.3-4.33-1.14-8.56-2.26-13.09-3.45-1.24 4.25-2.42 8.27-3.65 12.49-2.43-.47-6.21-.89-10.67-.09-2.65.47-4.85 1.26-6.53 2 1.75 3.65 3.5 7.29 5.25 10.94 3.12-1.78 6.22-1.98 9.63-.95-2.09 11.96-3.77 23.88-3.3 35.9.28 7.11-2.59 13.31-6.69 19.21-1.64 2.36-3.63 5.1-7.53 4.42-3.49-.6-4.27-3.57-5.06-6.04-3.42-10.56-2.54-21.28-1.44-31.99.46-4.45 1.12-8.88 1.71-13.46-4.66-.63-8.96-1.2-13.33-1.79-.3.67-.6 1.09-.68 1.53-2.05 12.3-3.21 24.65-2.26 37.06.43 5.66 1.65 11.27 4.53 16.5 6.55 11.9 21.8 13.87 32.27 4.14 1.1-1.02 2.14-2.08 3.44-3.35 3.84 6.05 9.29 9.76 17.37 9.51 7.83-.23 13.29-4.14 17.87-9.43 4.73 6.32 11.33 9.71 19.85 9.4 9.02-.33 12.91-6.56 17.23-12.26 7.83 14.89 28.77 15.35 39.05-.8 1.71 1.85 3.27 3.7 5.03 5.41 7.33 7.09 20.41 10.85 31.14 4.42.02 0 .05.01.07.02 2.84-1.66 5.27-3.98 7.61-6.73 3.08 4.75 7.03 8.07 12.11 9.38-.01.02-.03.04-.04.06.92.21 2.09.41 3.43.5.13 0 .25.02.38.03.21.01.42.02.64.02s.43.02.66.02c.17 0 .33 0 .5-.01h.37c2.97-.1 5.68-.74 8.18-1.86.04-.05.09-.1.13-.15 3.59-1.69 6.59-4.31 9.27-7.41 4.73 6.32 11.33 9.71 19.85 9.4 9.02-.33 12.91-6.56 17.23-12.27 4.13 7.86 11.9 11.69 19.83 11.2.44.07.93.08 1.5-.02 6.42-1.04 12.16-4.93 16.3-9.96 3.1-3.76 6.6-9.27 7.8-14.04l-12.8-4.91ZM289.07 15.83c.76 16.05-4.07 31.02-11.83 46.49-5.02-7.65-.76-37.68 11.83-46.49"/>
    </clipPath>
    <clipPath id="clippath-1">
      <path class="cls-1" d="M117.46-5h323.93v106.75H117.46z"/>
    </clipPath>
    <style>
      .cls-1{fill:none}
    </style>
  </defs>
  <path d="M103.55 0c-.21 3.34-.3 6.52-.63 9.68-1.7 16.26-4.71 32.35-9.12 48.21-2.57 9.24-5.4 18.43-10.65 26.87-.58.93-.93 2.18-2.98 2.44-5.7-12.73-6.45-26.24-8.54-39.48 4.3-2.52 8.51-4.51 12-7.63-3.21-3.02-6.25-5.88-9.18-8.64-2.05.65-2.96 2.45-5.16 2.48-1.38-5.18-2.62-10.3-4.77-15.21C58.67 5.32 45.83-.35 31.16 4.48 17.17 9.09 7.35 17.81 1.9 29.9c-5.5 12.18 1.33 23.89 15.63 27.88 7.74 2.16 15.5 1.67 23.31.27 5.86-1.05 11.42-2.98 16.95-4.47.91.64.8 1.35.9 1.98 1.21 7.46 2.07 14.97 3.84 22.36 1.44 6.04 2.98 12.07 7.37 17.11 5.91 6.79 14.92 7.11 21.42.85 3.07-2.96 5.16-6.45 6.9-10.09 6.28-13.15 9.96-26.94 13.01-40.88 3-13.7 5.15-27.5 5.89-41.45.06-1.19.52-2.45-.61-3.45h-12.94ZM22.22 46.2c-6.62-1.25-9.87-6.33-7.3-11.77 4.54-9.58 12.06-16.61 23.96-19.04 5.11-1.04 8.43.68 10.85 4.74 3.77 6.34 5.14 13.29 6.63 20.65-11.14 3.81-22.01 7.7-34.14 5.41Z" style="fill:#8d60cb" id="Layer_1-2" data-name="Layer 1"/>
</svg>
